STARTFONT 2.1
COMMENT Recovered from ar1.1:HL6 1 (Xerox Alto CONVERT font source (AL) recovered from MIT CADR AR1 ARC!!!)
FONT MIT-CADR-HL6-AL-AR1
SIZE 9 72 72
FONTBOUNDINGBOX 6 9 0 -2
STARTPROPERTIES 2
FONT_ASCENT 7
FONT_DESCENT 2
ENDPROPERTIES
CHARS 128
STARTCHAR C0000
ENCODING -1 0
SWIDTH 0 0
DWIDTH 0 0
BBX 0 9 0 -2
BITMAP
00
00
00
00
00
00
00
00
00
ENDCHAR
STARTCHAR C0001
ENCODING -1 1
SWIDTH 0 0
DWIDTH 0 0
BBX 0 9 0 -2
BITMAP
00
00
00
00
00
00
00
00
00
ENDCHAR
STARTCHAR C0002
ENCODING -1 2
SWIDTH 0 0
DWIDTH 0 0
BBX 0 9 0 -2
BITMAP
00
00
00
00
00
00
00
00
00
ENDCHAR
STARTCHAR C0003
ENCODING -1 3
SWIDTH 0 0
DWIDTH 0 0
BBX 0 9 0 -2
BITMAP
00
00
00
00
00
00
00
00
00
ENDCHAR
STARTCHAR C0004
ENCODING -1 4
SWIDTH 0 0
DWIDTH 0 0
BBX 0 9 0 -2
BITMAP
00
00
00
00
00
00
00
00
00
ENDCHAR
STARTCHAR C0005
ENCODING -1 5
SWIDTH 0 0
DWIDTH 0 0
BBX 0 9 0 -2
BITMAP
00
00
00
00
00
00
00
00
00
ENDCHAR
STARTCHAR C0006
ENCODING -1 6
SWIDTH 0 0
DWIDTH 0 0
BBX 0 9 0 -2
BITMAP
00
00
00
00
00
00
00
00
00
ENDCHAR
STARTCHAR C0007
ENCODING -1 7
SWIDTH 0 0
DWIDTH 0 0
BBX 0 9 0 -2
BITMAP
00
00
00
00
00
00
00
00
00
ENDCHAR
STARTCHAR C0008
ENCODING -1 8
SWIDTH 0 0
DWIDTH 0 0
BBX 0 9 0 -2
BITMAP
00
00
00
00
00
00
00
00
00
ENDCHAR
STARTCHAR C0009
ENCODING -1 9
SWIDTH 0 0
DWIDTH 0 0
BBX 0 9 0 -2
BITMAP
00
00
00
00
00
00
00
00
00
ENDCHAR
STARTCHAR C000A
ENCODING -1 10
SWIDTH 0 0
DWIDTH 0 0
BBX 0 9 0 -2
BITMAP
00
00
00
00
00
00
00
00
00
ENDCHAR
STARTCHAR C000B
ENCODING -1 11
SWIDTH 0 0
DWIDTH 0 0
BBX 0 9 0 -2
BITMAP
00
00
00
00
00
00
00
00
00
ENDCHAR
STARTCHAR C000C
ENCODING -1 12
SWIDTH 0 0
DWIDTH 0 0
BBX 0 9 0 -2
BITMAP
00
00
00
00
00
00
00
00
00
ENDCHAR
STARTCHAR C000D
ENCODING -1 13
SWIDTH 0 0
DWIDTH 0 0
BBX 0 9 0 -2
BITMAP
00
00
00
00
00
00
00
00
00
ENDCHAR
STARTCHAR C000E
ENCODING -1 14
SWIDTH 0 0
DWIDTH 0 0
BBX 0 9 0 -2
BITMAP
00
00
00
00
00
00
00
00
00
ENDCHAR
STARTCHAR C000F
ENCODING -1 15
SWIDTH 0 0
DWIDTH 0 0
BBX 0 9 0 -2
BITMAP
00
00
00
00
00
00
00
00
00
ENDCHAR
STARTCHAR C0010
ENCODING -1 16
SWIDTH 0 0
DWIDTH 0 0
BBX 0 9 0 -2
BITMAP
00
00
00
00
00
00
00
00
00
ENDCHAR
STARTCHAR C0011
ENCODING -1 17
SWIDTH 0 0
DWIDTH 0 0
BBX 0 9 0 -2
BITMAP
00
00
00
00
00
00
00
00
00
ENDCHAR
STARTCHAR C0012
ENCODING -1 18
SWIDTH 0 0
DWIDTH 0 0
BBX 0 9 0 -2
BITMAP
00
00
00
00
00
00
00
00
00
ENDCHAR
STARTCHAR C0013
ENCODING -1 19
SWIDTH 0 0
DWIDTH 0 0
BBX 0 9 0 -2
BITMAP
00
00
00
00
00
00
00
00
00
ENDCHAR
STARTCHAR C0014
ENCODING -1 20
SWIDTH 0 0
DWIDTH 0 0
BBX 0 9 0 -2
BITMAP
00
00
00
00
00
00
00
00
00
ENDCHAR
STARTCHAR C0015
ENCODING -1 21
SWIDTH 0 0
DWIDTH 0 0
BBX 0 9 0 -2
BITMAP
00
00
00
00
00
00
00
00
00
ENDCHAR
STARTCHAR C0016
ENCODING -1 22
SWIDTH 0 0
DWIDTH 0 0
BBX 0 9 0 -2
BITMAP
00
00
00
00
00
00
00
00
00
ENDCHAR
STARTCHAR C0017
ENCODING -1 23
SWIDTH 0 0
DWIDTH 0 0
BBX 0 9 0 -2
BITMAP
00
00
00
00
00
00
00
00
00
ENDCHAR
STARTCHAR C0018
ENCODING -1 24
SWIDTH 0 0
DWIDTH 0 0
BBX 0 9 0 -2
BITMAP
00
00
00
00
00
00
00
00
00
ENDCHAR
STARTCHAR C0019
ENCODING -1 25
SWIDTH 0 0
DWIDTH 0 0
BBX 0 9 0 -2
BITMAP
00
00
00
00
00
00
00
00
00
ENDCHAR
STARTCHAR C001A
ENCODING -1 26
SWIDTH 0 0
DWIDTH 0 0
BBX 0 9 0 -2
BITMAP
00
00
00
00
00
00
00
00
00
ENDCHAR
STARTCHAR C001B
ENCODING -1 27
SWIDTH 0 0
DWIDTH 0 0
BBX 0 9 0 -2
BITMAP
00
00
00
00
00
00
00
00
00
ENDCHAR
STARTCHAR C001C
ENCODING -1 28
SWIDTH 0 0
DWIDTH 0 0
BBX 0 9 0 -2
BITMAP
00
00
00
00
00
00
00
00
00
ENDCHAR
STARTCHAR C001D
ENCODING -1 29
SWIDTH 0 0
DWIDTH 0 0
BBX 0 9 0 -2
BITMAP
00
00
00
00
00
00
00
00
00
ENDCHAR
STARTCHAR C001E
ENCODING -1 30
SWIDTH 0 0
DWIDTH 0 0
BBX 0 9 0 -2
BITMAP
00
00
00
00
00
00
00
00
00
ENDCHAR
STARTCHAR C001F
ENCODING -1 31
SWIDTH 0 0
DWIDTH 0 0
BBX 0 9 0 -2
BITMAP
00
00
00
00
00
00
00
00
00
ENDCHAR
STARTCHAR C0020
ENCODING -1 32
SWIDTH 333 0
DWIDTH 3 0
BBX 3 9 0 -2
BITMAP
00
00
00
00
00
00
00
00
00
ENDCHAR
STARTCHAR C0021
ENCODING -1 33
SWIDTH 556 0
DWIDTH 5 0
BBX 5 9 0 -2
BITMAP
00
10
10
10
10
00
10
00
00
ENDCHAR
STARTCHAR C0022
ENCODING -1 34
SWIDTH 556 0
DWIDTH 5 0
BBX 5 9 0 -2
BITMAP
00
28
28
28
00
00
00
00
00
ENDCHAR
STARTCHAR C0023
ENCODING -1 35
SWIDTH 556 0
DWIDTH 5 0
BBX 6 9 0 -2
BITMAP
00
28
7C
28
7C
28
00
00
00
ENDCHAR
STARTCHAR C0024
ENCODING -1 36
SWIDTH 556 0
DWIDTH 5 0
BBX 6 9 0 -2
BITMAP
00
10
3C
50
38
14
78
10
00
ENDCHAR
STARTCHAR C0025
ENCODING -1 37
SWIDTH 667 0
DWIDTH 6 0
BBX 6 9 0 -2
BITMAP
20
54
28
10
28
54
08
00
00
ENDCHAR
STARTCHAR C0026
ENCODING -1 38
SWIDTH 667 0
DWIDTH 6 0
BBX 6 9 0 -2
BITMAP
00
20
50
20
54
48
34
00
00
ENDCHAR
STARTCHAR C0027
ENCODING -1 39
SWIDTH 333 0
DWIDTH 3 0
BBX 3 9 0 -2
BITMAP
00
20
20
20
00
00
00
00
00
ENDCHAR
STARTCHAR C0028
ENCODING -1 40
SWIDTH 444 0
DWIDTH 4 0
BBX 4 9 0 -2
BITMAP
10
20
40
40
40
40
40
20
10
ENDCHAR
STARTCHAR C0029
ENCODING -1 41
SWIDTH 444 0
DWIDTH 4 0
BBX 4 9 0 -2
BITMAP
40
20
10
10
10
10
10
20
40
ENDCHAR
STARTCHAR C002A
ENCODING -1 42
SWIDTH 556 0
DWIDTH 5 0
BBX 6 9 0 -2
BITMAP
10
54
38
54
10
00
00
00
00
ENDCHAR
STARTCHAR C002B
ENCODING -1 43
SWIDTH 556 0
DWIDTH 5 0
BBX 6 9 0 -2
BITMAP
00
00
10
10
7C
10
10
00
00
ENDCHAR
STARTCHAR C002C
ENCODING -1 44
SWIDTH 333 0
DWIDTH 3 0
BBX 3 9 0 -2
BITMAP
00
00
00
00
00
60
20
20
40
ENDCHAR
STARTCHAR C002D
ENCODING -1 45
SWIDTH 556 0
DWIDTH 5 0
BBX 5 9 0 -2
BITMAP
00
00
00
00
38
00
00
00
00
ENDCHAR
STARTCHAR C002E
ENCODING -1 46
SWIDTH 333 0
DWIDTH 3 0
BBX 3 9 0 -2
BITMAP
00
00
00
00
00
20
20
00
00
ENDCHAR
STARTCHAR C002F
ENCODING -1 47
SWIDTH 556 0
DWIDTH 5 0
BBX 5 9 0 -2
BITMAP
00
08
08
10
10
20
20
00
00
ENDCHAR
STARTCHAR C0030
ENCODING -1 48
SWIDTH 556 0
DWIDTH 5 0
BBX 5 9 0 -2
BITMAP
00
30
48
58
68
48
30
00
00
ENDCHAR
STARTCHAR C0031
ENCODING -1 49
SWIDTH 556 0
DWIDTH 5 0
BBX 5 9 0 -2
BITMAP
00
18
28
08
08
08
08
00
00
ENDCHAR
STARTCHAR C0032
ENCODING -1 50
SWIDTH 556 0
DWIDTH 5 0
BBX 5 9 0 -2
BITMAP
00
30
48
10
20
40
78
00
00
ENDCHAR
STARTCHAR C0033
ENCODING -1 51
SWIDTH 556 0
DWIDTH 5 0
BBX 5 9 0 -2
BITMAP
00
30
48
10
08
48
30
00
00
ENDCHAR
STARTCHAR C0034
ENCODING -1 52
SWIDTH 556 0
DWIDTH 5 0
BBX 6 9 0 -2
BITMAP
00
28
28
48
7C
08
08
00
00
ENDCHAR
STARTCHAR C0035
ENCODING -1 53
SWIDTH 556 0
DWIDTH 5 0
BBX 5 9 0 -2
BITMAP
00
78
40
70
08
48
30
00
00
ENDCHAR
STARTCHAR C0036
ENCODING -1 54
SWIDTH 556 0
DWIDTH 5 0
BBX 5 9 0 -2
BITMAP
00
38
40
70
48
48
30
00
00
ENDCHAR
STARTCHAR C0037
ENCODING -1 55
SWIDTH 556 0
DWIDTH 5 0
BBX 5 9 0 -2
BITMAP
00
78
08
10
10
20
20
00
00
ENDCHAR
STARTCHAR C0038
ENCODING -1 56
SWIDTH 556 0
DWIDTH 5 0
BBX 5 9 0 -2
BITMAP
00
30
48
30
48
48
30
00
00
ENDCHAR
STARTCHAR C0039
ENCODING -1 57
SWIDTH 556 0
DWIDTH 5 0
BBX 5 9 0 -2
BITMAP
00
30
48
48
38
08
70
00
00
ENDCHAR
STARTCHAR C003A
ENCODING -1 58
SWIDTH 333 0
DWIDTH 3 0
BBX 3 9 0 -2
BITMAP
00
00
20
20
00
20
20
00
00
ENDCHAR
STARTCHAR C003B
ENCODING -1 59
SWIDTH 333 0
DWIDTH 3 0
BBX 3 9 0 -2
BITMAP
00
00
20
20
00
60
20
20
40
ENDCHAR
STARTCHAR C003C
ENCODING -1 60
SWIDTH 556 0
DWIDTH 5 0
BBX 5 9 0 -2
BITMAP
00
00
08
10
20
10
08
00
00
ENDCHAR
STARTCHAR C003D
ENCODING -1 61
SWIDTH 556 0
DWIDTH 5 0
BBX 5 9 0 -2
BITMAP
00
00
00
38
00
38
00
00
00
ENDCHAR
STARTCHAR C003E
ENCODING -1 62
SWIDTH 444 0
DWIDTH 4 0
BBX 5 9 0 -2
BITMAP
00
00
20
10
08
10
20
00
00
ENDCHAR
STARTCHAR C003F
ENCODING -1 63
SWIDTH 556 0
DWIDTH 5 0
BBX 5 9 0 -2
BITMAP
00
30
48
10
20
00
20
00
00
ENDCHAR
STARTCHAR C0040
ENCODING -1 64
SWIDTH 667 0
DWIDTH 6 0
BBX 6 9 0 -2
BITMAP
00
38
44
5C
54
5C
40
3C
00
ENDCHAR
STARTCHAR C0041
ENCODING -1 65
SWIDTH 556 0
DWIDTH 5 0
BBX 5 9 0 -2
BITMAP
00
30
48
48
78
48
48
00
00
ENDCHAR
STARTCHAR C0042
ENCODING -1 66
SWIDTH 556 0
DWIDTH 5 0
BBX 5 9 0 -2
BITMAP
00
70
48
70
48
48
70
00
00
ENDCHAR
STARTCHAR C0043
ENCODING -1 67
SWIDTH 556 0
DWIDTH 5 0
BBX 5 9 0 -2
BITMAP
00
30
48
40
40
48
30
00
00
ENDCHAR
STARTCHAR C0044
ENCODING -1 68
SWIDTH 556 0
DWIDTH 5 0
BBX 5 9 0 -2
BITMAP
00
70
48
48
48
48
70
00
00
ENDCHAR
STARTCHAR C0045
ENCODING -1 69
SWIDTH 444 0
DWIDTH 4 0
BBX 4 9 0 -2
BITMAP
00
70
40
60
40
40
70
00
00
ENDCHAR
STARTCHAR C0046
ENCODING -1 70
SWIDTH 444 0
DWIDTH 4 0
BBX 4 9 0 -2
BITMAP
00
70
40
60
40
40
40
00
00
ENDCHAR
STARTCHAR C0047
ENCODING -1 71
SWIDTH 556 0
DWIDTH 5 0
BBX 5 9 0 -2
BITMAP
00
30
48
40
58
48
38
00
00
ENDCHAR
STARTCHAR C0048
ENCODING -1 72
SWIDTH 556 0
DWIDTH 5 0
BBX 5 9 0 -2
BITMAP
00
48
48
78
48
48
48
00
00
ENDCHAR
STARTCHAR C0049
ENCODING -1 73
SWIDTH 222 0
DWIDTH 2 0
BBX 2 9 0 -2
BITMAP
00
40
40
40
40
40
40
00
00
ENDCHAR
STARTCHAR C004A
ENCODING -1 74
SWIDTH 444 0
DWIDTH 4 0
BBX 4 9 0 -2
BITMAP
00
10
10
10
10
50
20
00
00
ENDCHAR
STARTCHAR C004B
ENCODING -1 75
SWIDTH 556 0
DWIDTH 5 0
BBX 5 9 0 -2
BITMAP
00
48
50
70
48
48
48
00
00
ENDCHAR
STARTCHAR C004C
ENCODING -1 76
SWIDTH 444 0
DWIDTH 4 0
BBX 4 9 0 -2
BITMAP
00
40
40
40
40
40
70
00
00
ENDCHAR
STARTCHAR C004D
ENCODING -1 77
SWIDTH 667 0
DWIDTH 6 0
BBX 6 9 0 -2
BITMAP
00
44
6C
54
54
44
44
00
00
ENDCHAR
STARTCHAR C004E
ENCODING -1 78
SWIDTH 556 0
DWIDTH 5 0
BBX 5 9 0 -2
BITMAP
00
48
68
68
58
58
48
00
00
ENDCHAR
STARTCHAR C004F
ENCODING -1 79
SWIDTH 556 0
DWIDTH 5 0
BBX 5 9 0 -2
BITMAP
00
30
48
48
48
48
30
00
00
ENDCHAR
STARTCHAR C0050
ENCODING -1 80
SWIDTH 556 0
DWIDTH 5 0
BBX 5 9 0 -2
BITMAP
00
70
48
48
70
40
40
00
00
ENDCHAR
STARTCHAR C0051
ENCODING -1 81
SWIDTH 556 0
DWIDTH 5 0
BBX 5 9 0 -2
BITMAP
00
30
48
48
48
48
30
08
00
ENDCHAR
STARTCHAR C0052
ENCODING -1 82
SWIDTH 556 0
DWIDTH 5 0
BBX 5 9 0 -2
BITMAP
00
70
48
48
70
48
48
00
00
ENDCHAR
STARTCHAR C0053
ENCODING -1 83
SWIDTH 556 0
DWIDTH 5 0
BBX 5 9 0 -2
BITMAP
00
30
48
20
10
48
30
00
00
ENDCHAR
STARTCHAR C0054
ENCODING -1 84
SWIDTH 444 0
DWIDTH 4 0
BBX 4 9 0 -2
BITMAP
00
70
20
20
20
20
20
00
00
ENDCHAR
STARTCHAR C0055
ENCODING -1 85
SWIDTH 556 0
DWIDTH 5 0
BBX 5 9 0 -2
BITMAP
00
48
48
48
48
48
30
00
00
ENDCHAR
STARTCHAR C0056
ENCODING -1 86
SWIDTH 556 0
DWIDTH 5 0
BBX 6 9 0 -2
BITMAP
00
44
44
44
44
28
10
00
00
ENDCHAR
STARTCHAR C0057
ENCODING -1 87
SWIDTH 667 0
DWIDTH 6 0
BBX 6 9 0 -2
BITMAP
00
44
44
54
54
6C
44
00
00
ENDCHAR
STARTCHAR C0058
ENCODING -1 88
SWIDTH 556 0
DWIDTH 5 0
BBX 5 9 0 -2
BITMAP
00
48
48
30
48
48
48
00
00
ENDCHAR
STARTCHAR C0059
ENCODING -1 89
SWIDTH 556 0
DWIDTH 5 0
BBX 6 9 0 -2
BITMAP
00
44
44
28
10
10
10
00
00
ENDCHAR
STARTCHAR C005A
ENCODING -1 90
SWIDTH 556 0
DWIDTH 5 0
BBX 5 9 0 -2
BITMAP
00
78
08
10
20
40
78
00
00
ENDCHAR
STARTCHAR C005B
ENCODING -1 91
SWIDTH 444 0
DWIDTH 4 0
BBX 4 9 0 -2
BITMAP
70
40
40
40
40
40
40
40
70
ENDCHAR
STARTCHAR C005C
ENCODING -1 92
SWIDTH 556 0
DWIDTH 5 0
BBX 5 9 0 -2
BITMAP
40
40
20
20
10
10
08
08
00
ENDCHAR
STARTCHAR C005D
ENCODING -1 93
SWIDTH 444 0
DWIDTH 4 0
BBX 4 9 0 -2
BITMAP
70
10
10
10
10
10
10
10
70
ENDCHAR
STARTCHAR C005E
ENCODING -1 94
SWIDTH 556 0
DWIDTH 5 0
BBX 6 9 0 -2
BITMAP
00
00
10
38
54
10
10
00
00
ENDCHAR
STARTCHAR C005F
ENCODING -1 95
SWIDTH 556 0
DWIDTH 5 0
BBX 6 9 0 -2
BITMAP
00
00
10
20
7C
20
10
00
00
ENDCHAR
STARTCHAR C0060
ENCODING -1 96
SWIDTH 0 0
DWIDTH 0 0
BBX 0 9 0 -2
BITMAP
00
00
00
00
00
00
00
00
00
ENDCHAR
STARTCHAR C0061
ENCODING -1 97
SWIDTH 444 0
DWIDTH 4 0
BBX 4 9 0 -2
BITMAP
00
00
20
10
30
50
30
00
00
ENDCHAR
STARTCHAR C0062
ENCODING -1 98
SWIDTH 444 0
DWIDTH 4 0
BBX 4 9 0 -2
BITMAP
40
40
60
50
50
50
60
00
00
ENDCHAR
STARTCHAR C0063
ENCODING -1 99
SWIDTH 444 0
DWIDTH 4 0
BBX 4 9 0 -2
BITMAP
00
00
20
50
40
50
20
00
00
ENDCHAR
STARTCHAR C0064
ENCODING -1 100
SWIDTH 444 0
DWIDTH 4 0
BBX 4 9 0 -2
BITMAP
10
10
30
50
50
50
30
00
00
ENDCHAR
STARTCHAR C0065
ENCODING -1 101
SWIDTH 444 0
DWIDTH 4 0
BBX 4 9 0 -2
BITMAP
00
00
20
50
70
40
30
00
00
ENDCHAR
STARTCHAR C0066
ENCODING -1 102
SWIDTH 333 0
DWIDTH 3 0
BBX 3 9 0 -2
BITMAP
20
40
60
40
40
40
40
00
00
ENDCHAR
STARTCHAR C0067
ENCODING -1 103
SWIDTH 444 0
DWIDTH 4 0
BBX 4 9 0 -2
BITMAP
00
00
30
50
50
50
30
10
60
ENDCHAR
STARTCHAR C0068
ENCODING -1 104
SWIDTH 444 0
DWIDTH 4 0
BBX 4 9 0 -2
BITMAP
40
40
60
50
50
50
50
00
00
ENDCHAR
STARTCHAR C0069
ENCODING -1 105
SWIDTH 222 0
DWIDTH 2 0
BBX 2 9 0 -2
BITMAP
40
00
40
40
40
40
40
00
00
ENDCHAR
STARTCHAR C006A
ENCODING -1 106
SWIDTH 222 0
DWIDTH 2 0
BBX 2 9 0 -2
BITMAP
40
00
40
40
40
40
40
40
80
ENDCHAR
STARTCHAR C006B
ENCODING -1 107
SWIDTH 444 0
DWIDTH 4 0
BBX 4 9 0 -2
BITMAP
40
40
50
60
50
50
50
00
00
ENDCHAR
STARTCHAR C006C
ENCODING -1 108
SWIDTH 222 0
DWIDTH 2 0
BBX 2 9 0 -2
BITMAP
40
40
40
40
40
40
40
00
00
ENDCHAR
STARTCHAR C006D
ENCODING -1 109
SWIDTH 667 0
DWIDTH 6 0
BBX 6 9 0 -2
BITMAP
00
00
7C
54
54
54
54
00
00
ENDCHAR
STARTCHAR C006E
ENCODING -1 110
SWIDTH 444 0
DWIDTH 4 0
BBX 4 9 0 -2
BITMAP
00
00
60
50
50
50
50
00
00
ENDCHAR
STARTCHAR C006F
ENCODING -1 111
SWIDTH 444 0
DWIDTH 4 0
BBX 4 9 0 -2
BITMAP
00
00
20
50
50
50
20
00
00
ENDCHAR
STARTCHAR C0070
ENCODING -1 112
SWIDTH 444 0
DWIDTH 4 0
BBX 4 9 0 -2
BITMAP
00
00
60
50
50
50
60
40
40
ENDCHAR
STARTCHAR C0071
ENCODING -1 113
SWIDTH 444 0
DWIDTH 4 0
BBX 4 9 0 -2
BITMAP
00
00
30
50
50
50
30
10
10
ENDCHAR
STARTCHAR C0072
ENCODING -1 114
SWIDTH 333 0
DWIDTH 3 0
BBX 3 9 0 -2
BITMAP
00
00
40
60
40
40
40
00
00
ENDCHAR
STARTCHAR C0073
ENCODING -1 115
SWIDTH 444 0
DWIDTH 4 0
BBX 4 9 0 -2
BITMAP
00
00
30
40
20
10
60
00
00
ENDCHAR
STARTCHAR C0074
ENCODING -1 116
SWIDTH 444 0
DWIDTH 4 0
BBX 4 9 0 -2
BITMAP
00
20
70
20
20
20
10
00
00
ENDCHAR
STARTCHAR C0075
ENCODING -1 117
SWIDTH 444 0
DWIDTH 4 0
BBX 4 9 0 -2
BITMAP
00
00
50
50
50
50
30
00
00
ENDCHAR
STARTCHAR C0076
ENCODING -1 118
SWIDTH 444 0
DWIDTH 4 0
BBX 4 9 0 -2
BITMAP
00
00
50
50
50
20
20
00
00
ENDCHAR
STARTCHAR C0077
ENCODING -1 119
SWIDTH 667 0
DWIDTH 6 0
BBX 6 9 0 -2
BITMAP
00
00
54
54
54
28
28
00
00
ENDCHAR
STARTCHAR C0078
ENCODING -1 120
SWIDTH 444 0
DWIDTH 4 0
BBX 4 9 0 -2
BITMAP
00
00
50
50
20
50
50
00
00
ENDCHAR
STARTCHAR C0079
ENCODING -1 121
SWIDTH 444 0
DWIDTH 4 0
BBX 4 9 0 -2
BITMAP
00
00
50
50
50
50
30
10
60
ENDCHAR
STARTCHAR C007A
ENCODING -1 122
SWIDTH 444 0
DWIDTH 4 0
BBX 4 9 0 -2
BITMAP
00
00
70
10
20
40
70
00
00
ENDCHAR
STARTCHAR C007B
ENCODING -1 123
SWIDTH 444 0
DWIDTH 4 0
BBX 4 9 0 -2
BITMAP
10
20
20
20
40
20
20
20
10
ENDCHAR
STARTCHAR C007C
ENCODING -1 124
SWIDTH 333 0
DWIDTH 3 0
BBX 3 9 0 -2
BITMAP
20
20
20
20
20
20
20
20
20
ENDCHAR
STARTCHAR C007D
ENCODING -1 125
SWIDTH 444 0
DWIDTH 4 0
BBX 4 9 0 -2
BITMAP
40
20
20
20
10
20
20
20
40
ENDCHAR
STARTCHAR C007E
ENCODING -1 126
SWIDTH 556 0
DWIDTH 5 0
BBX 5 9 0 -2
BITMAP
00
00
00
00
28
50
00
00
00
ENDCHAR
STARTCHAR C007F
ENCODING -1 127
SWIDTH 0 0
DWIDTH 0 0
BBX 0 9 0 -2
BITMAP
00
00
00
00
00
00
00
00
00
ENDCHAR
ENDFONT
